<?xml version="1.0" encoding="UTF-8"?>
<!DOCTYPE svg PUBLIC "-//W3C//DTD SVG 1.1//EN" "http://www.w3.org/Graphics/SVG/1.1/DTD/svg11.dtd">
<!-- Creator: CorelDRAW 2020 (64-Bit) -->
<svg xmlns="http://www.w3.org/2000/svg" xml:space="preserve" width="1000mm" height="1000mm" version="1.1" style="shape-rendering:geometricPrecision; text-rendering:geometricPrecision; image-rendering:optimizeQuality; fill-rule:evenodd; clip-rule:evenodd"
viewBox="0 0 1000000 1000000"
 xmlns:xlink="http://www.w3.org/1999/xlink"
 xmlns:xodm="http://www.corel.com/coreldraw/odm/2003">
 <defs>
  <style type="text/css">
   <![CDATA[
    .str0 {stroke:#66CC99;stroke-width:200;stroke-linejoin:bevel;stroke-miterlimit:22.9256}
    .fil1 {fill:none}
    .fil0 {fill:#C1272D}
   ]]>
  </style>
 </defs>
 <g id="A-WALL">
  <metadata id="CorelCorpID_0Corel-Layer"/>
  <path class="fil0" d="M624958 875040.3l0 -119999.9 0 0 -119999.8 0 0 0 119999.8 119999.9zm-249999.6 0l119999.8 -119999.9 0 0 -119999.8 0 0 0 0 119999.9zm129999.8 -129999.8l119999.8 0 0 0 0 -112928.8 0 0 -119999.8 -119999.8 0 0 0 232928.6zm-10000 0l0 -232928.6 0 0 -119999.8 119999.8 0 0 0 112928.8 0 0 119999.8 0zm129999.8 -127071l0 -112928.7 0 0 -112928.7 0 0 0 7071 7071.1 0 0 105857.7 105857.6zm-249999.6 0l112928.7 -112928.7 0 0 -112928.7 0 0 0 0 7071.1 0 0 0 105857.6zm249999.6 -122928.7l0 -112928.7 0 0 -112928.7 112928.7 0 0 112928.7 0zm-249999.6 0l112928.7 0 0 0 -112928.7 -112928.7 0 0 0 112928.7zm129999.8 -7071.1l107928.7 -107928.7 0 0 -55428.8 0 0 0 -52499.9 52499.9 0 0 0 55428.8zm-10000 0l0 -55428.8 0 0 -52499.9 -52499.9 0 0 -55428.8 0 0 0 105857.6 105857.7 0 0 2071.1 2071zm5000 -57499.9l5000 -5000 0 0 0 -45428.8 0 0 45428.8 0 0 0 5000 -5000 0 0 -5000 -5000 0 0 -45428.8 0 0 0 0 -45428.8 0 0 -5000 -5000 0 0 -5000 5000 0 0 0 100857.6 0 0 5000 5000zm-50428.8 -50428.8l0 -10000 0 0 -5000 5000 0 0 5000 5000zm-194570.9 -5300l112628.8 0 0 0 -112628.8 -112628.8 0 0 0 112628.8zm382861.2 0l107138.2 0 0 0 0 -112628.8 0 0 -112628.8 112628.8 0 0 5490.6 0zm-250790.2 -4700l55428.8 0 0 0 52499.9 -52499.9 0 0 0 -55428.9 0 0 -105857.7 105857.7 0 0 -2071 2071.1zm225857.4 0l-107928.7 -107928.8 0 0 0 55428.9 0 0 52499.9 52499.9 0 0 55428.8 0zm-367928.3 0l0 -107928.8 0 0 -53964.5 53964.4 0 0 51893.4 51893.3 0 0 2071.1 2071.1zm509999.2 0l53964.5 -53964.4 0 0 -53964.5 -53964.4 0 0 0 107928.8zm-129999.8 -2071.1l117928.8 -117928.7 0 0 -235857.5 0 0 0 117928.7 117928.7zm-249999.6 0l117928.7 -117928.7 0 0 -235857.5 0 0 0 105067.1 105067 0 0 12861.7 12861.7zm441034.8 -58964.3l58964.5 -58964.4 0 0 -117928.8 0 0 0 10000 9999.9 0 0 48964.3 48964.5zm-632070 0l58964.3 -58964.4 0 0 -117928.8 0 0 0 51893.4 51893.3 0 0 7071.1 7071.1zm311035 -63964.4l0 -114999.9 0 0 -114999.8 0 0 0 112928.7 112928.8 0 0 2071.1 2071.1zm20000 -10000l94999.8 -94999.9 0 0 -94999.8 0 0 0 0 94999.9zm104999.8 -114999.9l-114999.8 -114999.8 0 0 0 114999.8 0 0 2071.1 0 0 0 112928.7 0zm-239999.6 0l114999.8 0 0 0 0 -114999.8 0 0 -2071.1 2071.1 0 0 -112928.7 112928.7zm-134999.8 879998.8l9999.9 0 0 0 0 -237928.6 0 0 109999.9 109999.9 0 0 0 -14142.2 0 0 -102928.8 -102928.8 0 0 102928.8 0 0 0 0 -9999.9 0 0 -102928.8 0 0 0 102928.8 -102928.8 0 0 0 -14142.2 0 0 -109999.9 109999.9 0 0 0 -232928.6 0 0 109999.9 0 0 0 0 -10000 0 0 -109999.9 0 0 0 0 -110299.8 0 0 -9999.9 0 0 0 0 110299.8 0 0 -232928.6 0 0 0 171893.2 -171893.1 0 0 -7071.1 -7071.1 0 0 -176893.2 176893.1 0 0 0 14142.2 0 0 237928.6 237928.6 0 0 -237928.6 0 0 0 0 9999.9 0 0 237928.6 0 0 0 -237928.6 237928.6 0 0 0 7071.1 0 0 7071.1 0 0 0 237928.6 -237928.6 0 0 0 112928.8 0 0 0 124999.8zm499999.3 0l9999.9 0 0 0 0 -237928.6 0 0 237928.6 237928.6 0 0 7071.1 0 0 0 0 -7071.1 0 0 -237928.6 -237928.6 0 0 237928.6 0 0 0 0 -9999.9 0 0 -237928.6 0 0 0 237928.6 -237928.6 0 0 0 -14142.2 0 0 -176893.2 -176893.1 0 0 -7071.1 7071.1 0 0 171893.2 171893.1 0 0 -232928.6 0 0 0 0 -110299.8 0 0 -9999.9 0 0 0 0 110299.8 0 0 -109999.9 0 0 0 0 10000 0 0 109999.9 0 0 0 0 232928.6 0 0 -109999.9 -109999.9 0 0 0 14142.2 0 0 102928.8 102928.8 0 0 -102928.8 0 0 0 0 9999.9 0 0 102928.8 0 0 0 -102928.8 102928.8 0 0 0 14142.2 0 0 109999.9 -109999.9 0 0 0 112928.8 0 0 0 124999.8zm-252070.8 0l14142.2 0 0 0 114393.2 -114393.3 0 0 -7071.1 -7071 0 0 -114393.2 114393.2 0 0 -114393.2 -114393.2 0 0 -7071.1 7071 0 0 107322.2 107322.2 0 0 7071 7071.1zm-5000 -619999.1l7071.1 0 0 0 0 -10000 0 0 -45428.8 0 0 0 0 10000 0 0 21645.7 0 0 0 16712 0zm-480857.1 -124999.9l108786.6 0 0 0 -9999.9 -9999.9 0 0 -105857.8 0 0 0 0 9999.9 0 0 7071.1 0zm887069.7 0l105857.8 0 0 0 0 -9999.9 0 0 -105857.8 0 0 0 -9999.9 9999.9 0 0 4393.3 0 0 0 5606.6 0zm-661212.2 -14999.9l34142.1 0 0 0 104393.3 -104393.3 0 0 -7071.1 -7071.1 0 0 -109393.3 109393.3 0 0 0 -237928.6 0 0 -9999.9 0 0 0 0 237928.6 0 0 -237928.6 -237928.6 0 0 -7071.1 0 0 0 0 7071.1 0 0 7071.1 7071 0 0 225857.5 225857.6zm514141.4 0l20000 0 0 0 232928.6 -232928.6 0 0 0 -7071.1 0 0 -7071.1 0 0 0 -237928.6 237928.6 0 0 0 -237928.6 0 0 -9999.9 0 0 0 0 237928.6 0 0 -109393.3 -109393.3 0 0 -7071.1 7071.1 0 0 104393.3 104393.3 0 0 12071.1 0 0 0 2071 0zm-502070.5 497928.1l0 -232928.5 -232928.2 0 182608.5 182608.9 50319.7 50319.6zm509999.3 -232928.5l0 232928.5 50320.3 -50319.6 182608.2 -182608.9 -232928.5 0z"/>
 </g>
 <g id="Layer_x0020_2" visibility="hidden">
  <metadata id="CorelCorpID_1Corel-Layer"/>
  <line class="fil1 str0" x1="471175.1" y1="341324.1" x2="494958.2" y2= "317541.1" />
  <line class="fil1 str0" x1="494958.2" y1="317541.1" x2="494958.2" y2= "262112.2" />
  <line class="fil1 str0" x1="494958.2" y1="262112.2" x2="387029.5" y2= "370041" />
  <line class="fil1 str0" x1="387029.5" y1="370041" x2="442458.3" y2= "370041" />
  <line class="fil1 str0" x1="442458.3" y1="370041" x2="471175.1" y2= "341324.1" />
  <line class="fil1 str0" x1="609958" y1="140041.3" x2="514958.2" y2= "140041.3" />
  <line class="fil1 str0" x1="514958.2" y1="140041.3" x2="514958.2" y2= "235041.2" />
  <line class="fil1 str0" x1="514958.2" y1="235041.2" x2="609958" y2= "140041.3" />
  <line class="fil1 str0" x1="494958.2" y1="755040.4" x2="374958.4" y2= "755040.4" />
  <line class="fil1 str0" x1="374958.4" y1="755040.4" x2="374958.4" y2= "875040.3" />
  <line class="fil1 str0" x1="374958.4" y1="875040.3" x2="494958.2" y2= "755040.4" />
  <line class="fil1 str0" x1="183923.2" y1="309005.6" x2="242887.5" y2= "250041.2" />
  <line class="fil1 str0" x1="242887.5" y1="250041.2" x2="124958.7" y2= "250041.2" />
  <line class="fil1 str0" x1="124958.7" y1="250041.2" x2="183923.2" y2= "309005.6" />
  <line class="fil1 str0" x1="244958.6" y1="370041" x2="244958.6" y2= "262112.2" />
  <line class="fil1 str0" x1="244958.6" y1="262112.2" x2="190994.1" y2= "316076.6" />
  <line class="fil1 str0" x1="190994.1" y1="316076.6" x2="244958.6" y2= "370041" />
  <line class="fil1 str0" x1="374958.4" y1="617969.5" x2="487887.1" y2= "505040.8" />
  <line class="fil1 str0" x1="487887.1" y1="505040.8" x2="374958.4" y2= "505040.8" />
  <line class="fil1 str0" x1="374958.4" y1="505040.8" x2="374958.4" y2= "617969.5" />
  <line class="fil1 str0" x1="374958.4" y1="745040.5" x2="494958.2" y2= "745040.5" />
  <line class="fil1 str0" x1="494958.2" y1="745040.5" x2="494958.2" y2= "512111.9" />
  <line class="fil1 str0" x1="494958.2" y1="512111.9" x2="374958.4" y2= "632111.7" />
  <line class="fil1 str0" x1="374958.4" y1="632111.7" x2="374958.4" y2= "745040.5" />
  <line class="fil1 str0" x1="494958.2" y1="245041.2" x2="494958.2" y2= "130041.3" />
  <line class="fil1 str0" x1="494958.2" y1="130041.3" x2="379958.4" y2= "130041.3" />
  <line class="fil1 str0" x1="379958.4" y1="130041.3" x2="494958.2" y2= "245041.2" />
  <line class="fil1 str0" x1="362096.7" y1="250041.2" x2="257029.6" y2= "250041.2" />
  <line class="fil1 str0" x1="257029.6" y1="250041.2" x2="374958.4" y2= "367969.9" />
  <line class="fil1 str0" x1="374958.4" y1="367969.9" x2="492887.1" y2= "250041.2" />
  <line class="fil1 str0" x1="492887.1" y1="250041.2" x2="362096.7" y2= "250041.2" />
  <line class="fil1 str0" x1="374958.4" y1="495040.8" x2="487887.1" y2= "495040.8" />
  <line class="fil1 str0" x1="487887.1" y1="495040.8" x2="374958.4" y2= "382112.1" />
  <line class="fil1 str0" x1="374958.4" y1="382112.1" x2="374958.4" y2= "495040.8" />
  <line class="fil1 str0" x1="504958.2" y1="5041.5" x2="504958.2" y2= "120041.3" />
  <line class="fil1 str0" x1="504958.2" y1="120041.3" x2="619958" y2= "120041.3" />
  <line class="fil1 str0" x1="619958" y1="120041.3" x2="504958.2" y2= "5041.5" />
  <line class="fil1 str0" x1="379958.4" y1="120041.3" x2="494958.2" y2= "120041.3" />
  <line class="fil1 str0" x1="494958.2" y1="120041.3" x2="494958.2" y2= "5041.5" />
  <line class="fil1 str0" x1="494958.2" y1="5041.5" x2="379958.4" y2= "120041.3" />
  <line class="fil1 str0" x1="367587.3" y1="374741" x2="254958.5" y2= "262112.2" />
  <line class="fil1 str0" x1="254958.5" y1="262112.2" x2="254958.5" y2= "374741" />
  <line class="fil1 str0" x1="254958.5" y1="374741" x2="367587.3" y2= "374741" />
  <line class="fil1 str0" x1="815993.2" y1="309005.6" x2="874957.7" y2= "250041.2" />
  <line class="fil1 str0" x1="874957.7" y1="250041.2" x2="757028.9" y2= "250041.2" />
  <line class="fil1 str0" x1="757028.9" y1="250041.2" x2="815993.2" y2= "309005.6" />
  <line class="fil1 str0" x1="624958" y1="495040.8" x2="624958" y2= "382112.1" />
  <line class="fil1 str0" x1="624958" y1="382112.1" x2="512029.3" y2= "495040.8" />
  <line class="fil1 str0" x1="512029.3" y1="495040.8" x2="624958" y2= "495040.8" />
  <line class="fil1 str0" x1="528741.3" y1="341324.1" x2="557458.1" y2= "370041" />
  <line class="fil1 str0" x1="557458.1" y1="370041" x2="612886.9" y2= "370041" />
  <line class="fil1 str0" x1="612886.9" y1="370041" x2="504958.2" y2= "262112.2" />
  <line class="fil1 str0" x1="504958.2" y1="262112.2" x2="504958.2" y2= "317541.1" />
  <line class="fil1 str0" x1="504958.2" y1="317541.1" x2="528741.3" y2= "341324.1" />
  <line class="fil1 str0" x1="557458.1" y1="380041" x2="504958.2" y2= "432540.9" />
  <line class="fil1 str0" x1="504958.2" y1="432540.9" x2="504958.2" y2= "487969.7" />
  <line class="fil1 str0" x1="504958.2" y1="487969.7" x2="612886.9" y2= "380041" />
  <line class="fil1 str0" x1="612886.9" y1="380041" x2="557458.1" y2= "380041" />
  <line class="fil1 str0" x1="637819.7" y1="250041.2" x2="507029.3" y2= "250041.2" />
  <line class="fil1 str0" x1="507029.3" y1="250041.2" x2="624958" y2= "367969.9" />
  <line class="fil1 str0" x1="624958" y1="367969.9" x2="742886.8" y2= "250041.2" />
  <line class="fil1 str0" x1="742886.8" y1="250041.2" x2="637819.7" y2= "250041.2" />
  <line class="fil1 str0" x1="632329.1" y1="374741" x2="744957.9" y2= "374741" />
  <line class="fil1 str0" x1="744957.9" y1="374741" x2="744957.9" y2= "262112.2" />
  <line class="fil1 str0" x1="744957.9" y1="262112.2" x2="632329.1" y2= "374741" />
  <line class="fil1 str0" x1="504958.2" y1="755040.4" x2="624958" y2= "875040.3" />
  <line class="fil1 str0" x1="624958" y1="875040.3" x2="624958" y2= "755040.4" />
  <line class="fil1 str0" x1="624958" y1="755040.4" x2="504958.2" y2= "755040.4" />
  <line class="fil1 str0" x1="624958" y1="745040.5" x2="624958" y2= "632111.7" />
  <line class="fil1 str0" x1="624958" y1="632111.7" x2="504958.2" y2= "512111.9" />
  <line class="fil1 str0" x1="504958.2" y1="512111.9" x2="504958.2" y2= "745040.5" />
  <line class="fil1 str0" x1="504958.2" y1="745040.5" x2="624958" y2= "745040.5" />
  <line class="fil1 str0" x1="754957.8" y1="370041" x2="808922.3" y2= "316076.6" />
  <line class="fil1 str0" x1="808922.3" y1="316076.6" x2="754957.8" y2= "262112.2" />
  <line class="fil1 str0" x1="754957.8" y1="262112.2" x2="754957.8" y2= "370041" />
  <line class="fil1 str0" x1="624958" y1="617969.5" x2="624958" y2= "505040.8" />
  <line class="fil1 str0" x1="624958" y1="505040.8" x2="512029.3" y2= "505040.8" />
  <line class="fil1 str0" x1="512029.3" y1="505040.8" x2="624958" y2= "617969.5" />
  <line class="fil1 str0" x1="442458.3" y1="380041" x2="387029.5" y2= "380041" />
  <line class="fil1 str0" x1="387029.5" y1="380041" x2="494958.2" y2= "487969.7" />
  <line class="fil1 str0" x1="494958.2" y1="487969.7" x2="494958.2" y2= "432540.9" />
  <line class="fil1 str0" x1="494958.2" y1="432540.9" x2="442458.3" y2= "380041" />
  <line class="fil1 str0" x1="504958.2" y1="380041" x2="550387" y2= "380041" />
  <line class="fil1 str0" x1="550387" y1="380041" x2="555387" y2= "375041" />
  <line class="fil1 str0" x1="555387" y1="375041" x2="550387" y2= "370041" />
  <line class="fil1 str0" x1="550387" y1="370041" x2="504958.2" y2= "370041" />
  <line class="fil1 str0" x1="504958.2" y1="370041" x2="504958.2" y2= "324612.2" />
  <line class="fil1 str0" x1="504958.2" y1="324612.2" x2="499958.2" y2= "319612.2" />
  <line class="fil1 str0" x1="499958.2" y1="319612.2" x2="494958.2" y2= "324612.2" />
  <line class="fil1 str0" x1="494958.2" y1="324612.2" x2="494958.2" y2= "370041" />
  <line class="fil1 str0" x1="494958.2" y1="370041" x2="449529.4" y2= "370041" />
  <line class="fil1 str0" x1="449529.4" y1="370041" x2="444529.4" y2= "375041" />
  <line class="fil1 str0" x1="444529.4" y1="375041" x2="449529.4" y2= "380041" />
  <line class="fil1 str0" x1="449529.4" y1="380041" x2="494958.2" y2= "380041" />
  <line class="fil1 str0" x1="494958.2" y1="380041" x2="494958.2" y2= "425469.8" />
  <line class="fil1 str0" x1="494958.2" y1="425469.8" x2="499958.2" y2= "430469.8" />
  <line class="fil1 str0" x1="499958.2" y1="430469.8" x2="504958.2" y2= "425469.8" />
  <line class="fil1 str0" x1="504958.2" y1="425469.8" x2="504958.2" y2= "380041" />
  <line class="fil1 str0" x1="244958.6" y1="41.5" x2="244958.6" y2= "237970.1" />
  <line class="fil1 str0" x1="244958.6" y1="237970.1" x2="7030" y2= "41.5" />
  <line class="fil1 str0" x1="7030" y1="41.5" x2="-41.1" y2= "41.5" />
  <line class="fil1 str0" x1="-41.1" y1="41.5" x2="-41.1" y2= "7112.6" />
  <line class="fil1 str0" x1="-41.1" y1="7112.6" x2="232887.5" y2= "240041.2" />
  <line class="fil1 str0" x1="232887.5" y1="240041.2" x2="248572.7" y2= "240041.2" />
  <line class="fil1 str0" x1="248572.7" y1="240041.2" x2="267029.6" y2= "240041.2" />
  <line class="fil1 str0" x1="267029.6" y1="240041.2" x2="371422.9" y2= "135647.9" />
  <line class="fil1 str0" x1="371422.9" y1="135647.9" x2="364351.8" y2= "128576.8" />
  <line class="fil1 str0" x1="364351.8" y1="128576.8" x2="254958.5" y2= "237970.1" />
  <line class="fil1 str0" x1="254958.5" y1="237970.1" x2="254958.5" y2= "41.5" />
  <line class="fil1 str0" x1="254958.5" y1="41.5" x2="244958.6" y2= "41.5" />
  <line class="fil1 str0" x1="244958.6" y1="505040.8" x2="244958.6" y2= "737969.4" />
  <line class="fil1 str0" x1="244958.6" y1="737969.4" x2="194638.6" y2= "687649.5" />
  <line class="fil1 str0" x1="194638.6" y1="687649.5" x2="12030" y2= "505040.8" />
  <line class="fil1 str0" x1="12030" y1="505040.8" x2="244958.6" y2= "505040.8" />
  <line class="fil1 str0" x1="504958.2" y1="370041" x2="504958.2" y2= "324612.2" />
  <line class="fil1 str0" x1="504958.2" y1="324612.2" x2="499958.2" y2= "319612.2" />
  <line class="fil1 str0" x1="499958.2" y1="319612.2" x2="494958.2" y2= "324612.2" />
  <line class="fil1 str0" x1="494958.2" y1="324612.2" x2="494958.2" y2= "370041" />
  <line class="fil1 str0" x1="494958.2" y1="370041" x2="449529.4" y2= "370041" />
  <line class="fil1 str0" x1="449529.4" y1="370041" x2="444529.4" y2= "375041" />
  <line class="fil1 str0" x1="444529.4" y1="375041" x2="449529.4" y2= "380041" />
  <line class="fil1 str0" x1="449529.4" y1="380041" x2="494958.2" y2= "380041" />
  <line class="fil1 str0" x1="494958.2" y1="380041" x2="494958.2" y2= "425469.8" />
  <line class="fil1 str0" x1="494958.2" y1="425469.8" x2="499958.2" y2= "430469.8" />
  <line class="fil1 str0" x1="499958.2" y1="430469.8" x2="504958.2" y2= "425469.8" />
  <line class="fil1 str0" x1="504958.2" y1="425469.8" x2="504958.2" y2= "380041" />
  <line class="fil1 str0" x1="504958.2" y1="380041" x2="550387" y2= "380041" />
  <line class="fil1 str0" x1="550387" y1="380041" x2="555387" y2= "375041" />
  <line class="fil1 str0" x1="555387" y1="375041" x2="550387" y2= "370041" />
  <line class="fil1 str0" x1="550387" y1="370041" x2="504958.2" y2= "370041" />
  <line class="fil1 str0" x1="-41.1" y1="255041.1" x2="115816.6" y2= "255041.1" />
  <line class="fil1 str0" x1="115816.6" y1="255041.1" x2="111423.3" y2= "250647.8" />
  <line class="fil1 str0" x1="111423.3" y1="250647.8" x2="105816.7" y2= "245041.2" />
  <line class="fil1 str0" x1="105816.7" y1="245041.2" x2="-41.1" y2= "245041.2" />
  <line class="fil1 str0" x1="-41.1" y1="245041.2" x2="-41.1" y2= "255041.1" />
  <line class="fil1 str0" x1="-41.1" y1="492969.7" x2="-41.1" y2= "507111.9" />
  <line class="fil1 str0" x1="-41.1" y1="507111.9" x2="187776.8" y2= "694929.8" />
  <line class="fil1 str0" x1="187776.8" y1="694929.8" x2="237887.5" y2= "745040.5" />
  <line class="fil1 str0" x1="237887.5" y1="745040.5" x2="-41.1" y2= "745040.5" />
  <line class="fil1 str0" x1="-41.1" y1="745040.5" x2="-41.1" y2= "755040.4" />
  <line class="fil1 str0" x1="-41.1" y1="755040.4" x2="237887.5" y2= "755040.4" />
  <line class="fil1 str0" x1="237887.5" y1="755040.4" x2="-41.1" y2= "992969" />
  <line class="fil1 str0" x1="-41.1" y1="992969" x2="-41.1" y2= "1000040.1" />
  <line class="fil1 str0" x1="-41.1" y1="1000040.1" x2="7030" y2= "1000040.1" />
  <line class="fil1 str0" x1="7030" y1="1000040.1" x2="244958.6" y2= "762111.5" />
  <line class="fil1 str0" x1="244958.6" y1="762111.5" x2="244958.6" y2= "1000040.1" />
  <line class="fil1 str0" x1="244958.6" y1="1000040.1" x2="254958.5" y2= "1000040.1" />
  <line class="fil1 str0" x1="254958.5" y1="1000040.1" x2="254958.5" y2= "762111.5" />
  <line class="fil1 str0" x1="254958.5" y1="762111.5" x2="364958.4" y2= "872111.4" />
  <line class="fil1 str0" x1="364958.4" y1="872111.4" x2="364958.4" y2= "857969.2" />
  <line class="fil1 str0" x1="364958.4" y1="857969.2" x2="262029.6" y2= "755040.4" />
  <line class="fil1 str0" x1="262029.6" y1="755040.4" x2="364958.4" y2= "755040.4" />
  <line class="fil1 str0" x1="364958.4" y1="755040.4" x2="364958.4" y2= "745040.5" />
  <line class="fil1 str0" x1="364958.4" y1="745040.5" x2="262029.6" y2= "745040.5" />
  <line class="fil1 str0" x1="262029.6" y1="745040.5" x2="364958.4" y2= "642111.7" />
  <line class="fil1 str0" x1="364958.4" y1="642111.7" x2="364958.4" y2= "627969.5" />
  <line class="fil1 str0" x1="364958.4" y1="627969.5" x2="254958.5" y2= "737969.4" />
  <line class="fil1 str0" x1="254958.5" y1="737969.4" x2="254958.5" y2= "505040.8" />
  <line class="fil1 str0" x1="254958.5" y1="505040.8" x2="364958.4" y2= "505040.8" />
  <line class="fil1 str0" x1="364958.4" y1="505040.8" x2="364958.4" y2= "495040.8" />
  <line class="fil1 str0" x1="364958.4" y1="495040.8" x2="254958.5" y2= "495040.8" />
  <line class="fil1 str0" x1="254958.5" y1="495040.8" x2="254958.5" y2= "384741" />
  <line class="fil1 str0" x1="254958.5" y1="384741" x2="244958.6" y2= "384741" />
  <line class="fil1 str0" x1="244958.6" y1="384741" x2="244958.6" y2= "495040.8" />
  <line class="fil1 str0" x1="244958.6" y1="495040.8" x2="12030" y2= "495040.8" />
  <line class="fil1 str0" x1="12030" y1="495040.8" x2="183923.2" y2= "323147.7" />
  <line class="fil1 str0" x1="183923.2" y1="323147.7" x2="176852.1" y2= "316076.6" />
  <line class="fil1 str0" x1="176852.1" y1="316076.6" x2="-41.1" y2= "492969.7" />
  <line class="fil1 str0" x1="507029.3" y1="1000040.1" x2="621422.5" y2= "885646.8" />
  <line class="fil1 str0" x1="621422.5" y1="885646.8" x2="614351.4" y2= "878575.8" />
  <line class="fil1 str0" x1="614351.4" y1="878575.8" x2="499958.2" y2= "992969" />
  <line class="fil1 str0" x1="499958.2" y1="992969" x2="385565" y2= "878575.8" />
  <line class="fil1 str0" x1="385565" y1="878575.8" x2="378493.9" y2= "885646.8" />
  <line class="fil1 str0" x1="378493.9" y1="885646.8" x2="492887.1" y2= "1000040.1" />
  <line class="fil1 str0" x1="492887.1" y1="1000040.1" x2="507029.3" y2= "1000040.1" />
  <line class="fil1 str0" x1="754957.8" y1="41.5" x2="744957.9" y2= "41.5" />
  <line class="fil1 str0" x1="744957.9" y1="41.5" x2="744957.9" y2= "237970.1" />
  <line class="fil1 str0" x1="744957.9" y1="237970.1" x2="635564.6" y2= "128576.8" />
  <line class="fil1 str0" x1="635564.6" y1="128576.8" x2="628493.5" y2= "135647.9" />
  <line class="fil1 str0" x1="628493.5" y1="135647.9" x2="732886.8" y2= "240041.2" />
  <line class="fil1 str0" x1="732886.8" y1="240041.2" x2="751343.7" y2= "240041.2" />
  <line class="fil1 str0" x1="751343.7" y1="240041.2" x2="767028.9" y2= "240041.2" />
  <line class="fil1 str0" x1="767028.9" y1="240041.2" x2="999957.5" y2= "7112.6" />
  <line class="fil1 str0" x1="999957.5" y1="7112.6" x2="999957.5" y2= "41.5" />
  <line class="fil1 str0" x1="999957.5" y1="41.5" x2="992886.4" y2= "41.5" />
  <line class="fil1 str0" x1="992886.4" y1="41.5" x2="754957.8" y2= "237970.1" />
  <line class="fil1 str0" x1="754957.8" y1="237970.1" x2="754957.8" y2= "41.5" />
  <line class="fil1 str0" x1="999957.5" y1="492969.7" x2="823064.3" y2= "316076.6" />
  <line class="fil1 str0" x1="823064.3" y1="316076.6" x2="815993.2" y2= "323147.7" />
  <line class="fil1 str0" x1="815993.2" y1="323147.7" x2="987886.4" y2= "495040.8" />
  <line class="fil1 str0" x1="987886.4" y1="495040.8" x2="754957.8" y2= "495040.8" />
  <line class="fil1 str0" x1="754957.8" y1="495040.8" x2="754957.8" y2= "384741" />
  <line class="fil1 str0" x1="754957.8" y1="384741" x2="744957.9" y2= "384741" />
  <line class="fil1 str0" x1="744957.9" y1="384741" x2="744957.9" y2= "495040.8" />
  <line class="fil1 str0" x1="744957.9" y1="495040.8" x2="634958" y2= "495040.8" />
  <line class="fil1 str0" x1="634958" y1="495040.8" x2="634958" y2= "505040.8" />
  <line class="fil1 str0" x1="634958" y1="505040.8" x2="744957.9" y2= "505040.8" />
  <line class="fil1 str0" x1="744957.9" y1="505040.8" x2="744957.9" y2= "737969.4" />
  <line class="fil1 str0" x1="744957.9" y1="737969.4" x2="634958" y2= "627969.5" />
  <line class="fil1 str0" x1="634958" y1="627969.5" x2="634958" y2= "642111.7" />
  <line class="fil1 str0" x1="634958" y1="642111.7" x2="737886.8" y2= "745040.5" />
  <line class="fil1 str0" x1="737886.8" y1="745040.5" x2="634958" y2= "745040.5" />
  <line class="fil1 str0" x1="634958" y1="745040.5" x2="634958" y2= "755040.4" />
  <line class="fil1 str0" x1="634958" y1="755040.4" x2="737886.8" y2= "755040.4" />
  <line class="fil1 str0" x1="737886.8" y1="755040.4" x2="634958" y2= "857969.2" />
  <line class="fil1 str0" x1="634958" y1="857969.2" x2="634958" y2= "872111.4" />
  <line class="fil1 str0" x1="634958" y1="872111.4" x2="744957.9" y2= "762111.5" />
  <line class="fil1 str0" x1="744957.9" y1="762111.5" x2="744957.9" y2= "1000040.1" />
  <line class="fil1 str0" x1="744957.9" y1="1000040.1" x2="754957.8" y2= "1000040.1" />
  <line class="fil1 str0" x1="754957.8" y1="1000040.1" x2="754957.8" y2= "762111.5" />
  <line class="fil1 str0" x1="754957.8" y1="762111.5" x2="992886.4" y2= "1000040.1" />
  <line class="fil1 str0" x1="992886.4" y1="1000040.1" x2="999957.5" y2= "1000040.1" />
  <line class="fil1 str0" x1="999957.5" y1="1000040.1" x2="999957.5" y2= "992969" />
  <line class="fil1 str0" x1="999957.5" y1="992969" x2="762028.9" y2= "755040.4" />
  <line class="fil1 str0" x1="762028.9" y1="755040.4" x2="999957.5" y2= "755040.4" />
  <line class="fil1 str0" x1="999957.5" y1="755040.4" x2="999957.5" y2= "745040.5" />
  <line class="fil1 str0" x1="999957.5" y1="745040.5" x2="762028.9" y2= "745040.5" />
  <line class="fil1 str0" x1="762028.9" y1="745040.5" x2="812139.6" y2= "694929.8" />
  <line class="fil1 str0" x1="812139.6" y1="694929.8" x2="999957.5" y2= "507111.9" />
  <line class="fil1 str0" x1="999957.5" y1="507111.9" x2="999957.5" y2= "492969.7" />
  <line class="fil1 str0" x1="754957.8" y1="505040.8" x2="987886.4" y2= "505040.8" />
  <line class="fil1 str0" x1="987886.4" y1="505040.8" x2="805277.8" y2= "687649.5" />
  <line class="fil1 str0" x1="805277.8" y1="687649.5" x2="754957.8" y2= "737969.4" />
  <line class="fil1 str0" x1="754957.8" y1="737969.4" x2="754957.8" y2= "505040.8" />
  <line class="fil1 str0" x1="999957.5" y1="255041.1" x2="999957.5" y2= "245041.2" />
  <line class="fil1 str0" x1="999957.5" y1="245041.2" x2="894099.7" y2= "245041.2" />
  <line class="fil1 str0" x1="894099.7" y1="245041.2" x2="888493.1" y2= "250647.8" />
  <line class="fil1 str0" x1="888493.1" y1="250647.8" x2="884099.8" y2= "255041.1" />
  <line class="fil1 str0" x1="884099.8" y1="255041.1" x2="999957.5" y2= "255041.1" />
 </g>
</svg>
