<?xml version="1.0" encoding="UTF-8"?>
<!DOCTYPE svg PUBLIC "-//W3C//DTD SVG 1.1//EN" "http://www.w3.org/Graphics/SVG/1.1/DTD/svg11.dtd">
<!-- Creator: CorelDRAW 2020 (64-Bit) -->
<svg xmlns="http://www.w3.org/2000/svg" xml:space="preserve" width="1000mm" height="1000mm" version="1.1" style="shape-rendering:geometricPrecision; text-rendering:geometricPrecision; image-rendering:optimizeQuality; fill-rule:evenodd; clip-rule:evenodd"
viewBox="0 0 1000000 1000000"
 xmlns:xlink="http://www.w3.org/1999/xlink"
 xmlns:xodm="http://www.corel.com/coreldraw/odm/2003">
 <defs>
  <style type="text/css">
   <![CDATA[
    .fil0 {fill:#C1272D}
   ]]>
  </style>
 </defs>
 <g id="Layer_x0020_1">
  <metadata id="CorelCorpID_0Corel-Layer"/>
  <path class="fil0" d="M109958.7 553541.2l15000 -15000 0 0 15000 15000 0 0 0 -60000 0 0 15000 0 0 0 15000 -15000 0 0 -43585.8 0 0 0 -1414.2 1414.2 0 0 -1414.2 -1414.2 0 0 -43585.8 0 0 0 15000 15000 0 0 15000 0 0 0 0 58585.8 0 0 0 1414.2zm515500 -54207.1l5792.9 -5792.9 0 0 -5792.9 0 0 0 0 5792.9zm-1000 0l0 -5792.9 0 0 -5792.9 0 0 0 5792.9 5792.9zm-493207.1 -6792.9l-5792.9 0 0 0 0 -5792.9 0 0 3397.1 3397.1 0 0 2395.8 2395.8zm-6792.9 0l-5792.9 0 0 0 5792.9 -5792.9 0 0 0 5792.9zm258207.1 0l22292.9 0 0 0 15000 -15000 0 0 -44500 0 0 0 0 7792.9 0 0 7207.1 7207.1zm-7207.1 0l5792.9 0 0 0 -5792.9 -5792.9 0 0 0 5792.9zm-6792.9 0l5792.9 0 0 0 0 -5792.9 0 0 -2513 2513.1 0 0 -3279.9 3279.8zm-23707.1 0l22292.9 0 0 0 7207.1 -7207.1 0 0 0 -7792.9 0 0 -44500 0 0 0 11720.2 11720.2 0 0 3279.8 3279.8zm310000 0l15000 -15000 0 0 -44500 0 0 0 0 7792.9 0 0 7207.1 7207.1 0 0 7292.9 0 0 0 15000 0zm-29500 0l5792.9 0 0 0 -5792.9 -5792.9 0 0 0 5792.9zm-8207.1 0l7207.1 -7207.1 0 0 0 -7792.9 0 0 -44500 0 0 0 15000 15000 0 0 15000 0 0 0 7292.9 0zm-7292.9 -178000l14500 -14500 0 0 0 -30669.6 0 0 -14500 0 0 0 0 45169.6zm30000 0l0 -45169.6 0 0 -14500 0 0 0 0 30669.6 0 0 14500 14500zm-280000 -12000l14500 -14500 0 0 0 -37292.9 0 0 -7207.1 -7207.1 0 0 -7292.9 0 0 0 0 59000zm30000 0l0 -59000 0 0 -7292.9 0 0 0 -7207.1 7207.1 0 0 0 37292.9 0 0 14500 14500zm470000 -17.3l14500 -14500 0 0 0 -36292.9 0 0 -14500 14500 0 0 0 21792.9 0 0 0 14500zm-234500 -53189.8l5792.9 -5792.9 0 0 -5792.9 0 0 0 0 5792.9zm-250000 0l5792.9 -5792.9 0 0 -5792.9 0 0 0 0 5792.9zm-1000 0l0 -5792.9 0 0 -5792.9 0 0 0 5792.9 5792.9zm501000 -17.3l0 -5792.9 0 0 5792.9 0 0 0 -5792.9 5792.9zm-1000 0l-5792.9 -5792.9 0 0 5792.9 0 0 0 0 1513.1 0 0 0 4279.8zm-250000 -37275.6l0 -14000 0 0 -14000 14000 0 0 14000 0zm1000 0l14000 0 0 0 -14000 -14000 0 0 0 14000zm-265000 0l14000 0 0 0 0 -14000 0 0 -14000 14000zm499500 590500l14500 -14500 0 0 0 -37292.9 0 0 -7207.1 -7207.1 0 0 -7292.9 0 0 0 0 59000zm-250000 0l14500 -14500 0 0 0 -37292.9 0 0 -7207.1 -7207.1 0 0 -7292.9 0 0 0 0 59000zm-250000 0l14500 -14500 0 0 0 -37292.9 0 0 -7207.1 -7207.1 0 0 -7292.9 0 0 0 0 59000zm530000 0l0 -59000 0 0 -7292.9 0 0 0 -7207.1 7207.1 0 0 0 37292.9 0 0 14500 14500zm-250000 0l0 -59000 0 0 -7292.9 0 0 0 -7207.1 7207.1 0 0 0 37292.9 0 0 14500 14500zm-250000 0l0 -59000 0 0 -7292.9 0 0 0 -7207.1 7207.1 0 0 0 37292.9 0 0 14500 14500zm-280000 0l14500 -14500 0 0 0 -37292.9 0 0 -7207.1 -7207.1 0 0 -7292.9 0 0 0 0 59000zm30000 0l0 -59000 0 0 -7292.9 0 0 0 -7207.1 7207.1 0 0 0 37292.9 0 0 14500 14500zm512203.7 0l16509.5 0 0 0 3146.5 -3146.4 0 0 -7071.1 -7071.1 0 0 -8660.3 -5000 0 0 -7071 7071.1 0 0 0 5000 0 0 3146.4 3146.4zm222296.3 -53207.1l0 -5792.9 0 0 -5792.9 0 0 0 5792.9 5792.9zm1000 0l5792.9 -5792.9 0 0 -5792.9 0 0 0 0 5792.9zm-251000 0l0 -5792.9 0 0 -5792.9 0 0 0 5792.9 5792.9zm1000 0l5792.9 -5792.9 0 0 -5792.9 0 0 0 0 5792.9zm-250000 0l5792.9 -5792.9 0 0 -5792.9 0 0 0 0 5792.9zm-1000 0l0 -5792.9 0 0 -5792.9 0 0 0 5792.9 5792.9zm-249000 0l5792.9 -5792.9 0 0 -5792.9 0 0 0 0 5792.9zm-1000 0l0 -5792.9 0 0 -5792.9 0 0 0 5792.9 5792.9zm751000 -6792.9l5792.9 0 0 0 -5792.9 -5792.9 0 0 0 5792.9zm14500 0l15000 0 0 0 15000 -15000 0 0 -44500 0 0 0 0 7792.9 0 0 7207.1 7207.1 0 0 7292.9 0zm-15500 0l0 -5792.9 0 0 -5792.9 5792.9 0 0 5792.9 0zm-7207.1 0l7207.1 -7207.1 0 0 0 -7792.9 0 0 -44500 0 0 0 15000 15000 0 0 15000 0 0 0 7292.9 0zm-234585.8 0l22292.9 0 0 0 15000 -15000 0 0 -44500 0 0 0 0 7792.9 0 0 7207.1 7207.1zm-1414.2 0l-5792.9 -5792.9 0 0 0 5792.9 0 0 5792.9 0zm-14000 0l7207.1 -7207.1 0 0 0 -7792.9 0 0 -44500 0 0 0 15000 15000 0 0 15000 0 0 0 7292.9 0zm1414.2 0l5792.9 0 0 0 0 -5792.9 0 0 -5792.9 5792.9zm-237414.2 0l-5792.9 -5792.9 0 0 0 5792.9 0 0 5792.9 0zm1414.2 0l22292.9 0 0 0 15000 -15000 0 0 -44500 0 0 0 0 7792.9 0 0 7207.1 7207.1zm-8207.1 0l0 -5792.9 0 0 -5792.9 5792.9 0 0 5792.9 0zm-14500 0l7292.9 0 0 0 7207.1 -7207.1 0 0 0 -7792.9 0 0 -44500 0 0 0 15000 15000 0 0 15000 0zm-227292.9 0l22292.9 0 0 0 15000 -15000 0 0 -44500 0 0 0 0 7792.9 0 0 7207.1 7207.1zm-1414.2 0l-5792.9 -5792.9 0 0 0 5792.9 0 0 5792.9 0zm-14000 0l7207.1 -7207.1 0 0 0 -7792.9 0 0 -44500 0 0 0 15000 15000 0 0 15000 0 0 0 7292.9 0zm7207.1 0l0 -5792.9 0 0 -5792.9 5792.9 0 0 5792.9 0zm751000 -15500l14000 -14000 0 0 -14000 0 0 0 0 14000zm-250000 0l14000 -14000 0 0 -14000 0 0 0 0 14000zm249000 0l0 -14000 0 0 -14000 0 0 0 14000 14000zm-749000 0l14000 -14000 0 0 -14000 0 0 0 0 14000zm499000 0l0 -14000 0 0 -14000 0 0 0 14000 14000zm-250000 0l0 -14000 0 0 -14000 0 0 0 14000 14000zm-250000 0l0 -14000 0 0 -14000 0 0 0 14000 14000zm251000 0l14000 -14000 0 0 -14000 0 0 0 0 14000zm514000 -15000l-14000 -14000 0 0 0 14000 0 0 14000 0zm-29000 0l14000 0 0 0 0 -14000 0 0 -14000 14000zm-250000 0l14000 0 0 0 0 -14000 0 0 -14000 14000zm15000 0l14000 0 0 0 -14000 -14000 0 0 0 14000zm-265000 0l14000 0 0 0 0 -14000 0 0 -14000 14000zm29000 0l-14000 -14000 0 0 0 14000 0 0 14000 0zm-264000 0l14000 0 0 0 -14000 -14000 0 0 0 14000zm-15000 0l14000 0 0 0 0 -14000 0 0 -14000 14000zm499500 -133105.3l2150 0 0 0 0 -1000 0 0 -5300 0 0 0 0 -5300 0 0 -1000 0 0 0 0 6300 0 0 4150 0zm30000 0l4150 0 0 0 0 -6300 0 0 -1000 0 0 0 0 5300 0 0 -5300 0 0 0 0 1000 0 0 1650 0 0 0 500 0zm-280000 -26394.7l14500 -14500 0 0 0 -29000 0 0 -14500 0 0 0 0 43500zm250000 0l14500 -14500 0 0 0 -37292.9 0 0 -7207.1 -7207.1 0 0 -7292.9 0 0 0 0 59000zm-220000 0l0 -43500 0 0 -14500 0 0 0 0 29000 0 0 14500 14500zm250000 0l0 -59000 0 0 -7292.9 0 0 0 -7207.1 7207.1 0 0 0 37292.9 0 0 14500 14500zm234500 -500l0 -14000 0 0 -14000 0 0 0 14000 14000zm1000 0l14000 -14000 0 0 -14000 0 0 0 0 14000zm0 -15000l14000 0 0 0 -14000 -14000 0 0 0 14000zm-15000 0l14000 0 0 0 0 -14000 0 0 -14000 14000zm29500 -14500l30000 0 0 0 -15000 -15000 0 0 -22292.9 0 0 0 -7207.1 7207.1 0 0 0 7792.9 0 0 14500 0zm-15500 0l0 -7792.9 0 0 -7207.1 -7207.1 0 0 -22292.9 0 0 0 -15000 15000 0 0 30000 0 0 0 14500 0zm0 -9207.1l0 -5792.9 0 0 -5792.9 0 0 0 5792.9 5792.9zm1000 0l5792.9 -5792.9 0 0 -5792.9 0 0 0 0 5792.9zm-269650 -1698.2l1000 0 0 0 0 -6300 0 0 -6300 0 0 0 0 1000 0 0 5300 0 0 0 0 5300zm37300 0l1000 0 0 0 0 -5300 0 0 5300 0 0 0 0 -1000 0 0 -6300 0 0 0 0 1000 0 0 0 5300zm-293522.8 -1013.8l0 -1580.9 0 0 9372.8 0 0 0 0 -1000 0 0 -9372.8 0 0 0 0 -1580.9 0 0 -2081 2080.9 0 0 500 500 0 0 1581 1580.9zm47826.6 0l5000 0 0 0 -2081 -2080.9 0 0 2081 -2080.9 0 0 -5000 0 0 0 -1581 1580.9 0 0 -4872.8 0 0 0 0 1000 0 0 4872.8 0 0 0 1581 1580.9zm-21953.8 -2580.9l14500 0 0 0 0 -14500 0 0 -7292.9 0 0 0 -7207.1 7207.1 0 0 0 7292.9zm-15500 0l14500 0 0 0 0 -7292.9 0 0 -7207.1 -7207.1 0 0 -7292.9 0 0 0 0 7207.1 0 0 0 7292.9zm507292.9 -1500l7207.1 -7207.1 0 0 0 -37292.9 0 0 -14500 -14500 0 0 0 59000 0 0 7292.9 0zm7207.1 0l0 -5792.9 0 0 -5792.9 5792.9 0 0 5792.9 0zm15500 0l0 -59000 0 0 -14500 14500 0 0 0 37292.9 0 0 7207.1 7207.1 0 0 7292.9 0zm-14500 0l5792.9 0 0 0 -5792.9 -5792.9 0 0 0 5792.9zm-201350 -205.3l6300 0 0 0 0 -6300 0 0 -1000 0 0 0 0 5300 0 0 -5300 0 0 0 0 1000zm-104600 0l6300 0 0 0 0 -1000 0 0 -5300 0 0 0 0 -5300 0 0 -1000 0 0 0 0 5300 0 0 0 1000zm-445050 -7001.8l-5792.9 -5792.9 0 0 5792.9 0 0 0 0 5792.9zm1000 0l0 -5792.9 0 0 5792.9 0 0 0 -5792.9 5792.9zm249000 0l0 -5792.9 0 0 -5792.9 0 0 0 5792.9 5792.9zm1000 0l5792.9 -5792.9 0 0 -5792.9 0 0 0 0 5792.9zm249000 -6792.9l0 -5792.9 0 0 -5792.9 5792.9 0 0 5792.9 0zm-499500 -14000l15000 -15000 0 0 -15000 -15000 0 0 -15000 15000 0 0 13874.8 13874.8 0 0 1125.2 1125.2zm250500 -1500l14000 -14000 0 0 -14000 0 0 0 0 14000zm250000 0l14000 -14000 0 0 -14000 0 0 0 0 14000zm-251000 0l0 -14000 0 0 -14000 0 0 0 14000 14000zm250000 0l0 -14000 0 0 -14000 0 0 0 14000 14000zm-53950 -2705.3l0 -5300 0 0 5300 0 0 0 0 -1000 0 0 -6300 0 0 0 0 6300 0 0 1000 0zm109900 0l0 -6300 0 0 -6300 0 0 0 0 1000 0 0 5300 0 0 0 0 5300 0 0 1000 0zm-74600 -5300l1000 0 0 0 0 -6300 0 0 -1000 0 0 0 0 5300 0 0 -5300 0 0 0 0 1000 0 0 5300 0zm43600 0l0 -1000 0 0 -5300 0 0 0 0 -5300 0 0 -1000 0 0 0 0 6300 0 0 6300 0zm-288950 -6994.7l14000 0 0 0 0 -14000 0 0 -14000 14000zm15000 0l14000 0 0 0 -14000 -14000 0 0 0 14000zm235000 0l14000 0 0 0 0 -14000 0 0 -14000 14000zm29000 0l-14000 -14000 0 0 0 14000 0 0 14000 0zm4650 -24005.3l0 -6300 0 0 -6300 0 0 0 0 1000 0 0 5300 0 0 0 0 5300 0 0 1000 0zm-38300 0l1000 0 0 0 0 -5300 0 0 5300 0 0 0 0 -1000 0 0 -6300 0 0 0 0 1000 0 0 0 5300zm284150 -135512l0 -36292.9 0 0 -14500 -14500 0 0 0 36292.9 0 0 14500 14500zm-765500 -482.7l0 -14000 0 0 -14000 0 0 0 14000 14000zm1000 0l14000 -14000 0 0 -14000 0 0 0 0 14000zm0 -15000l14000 0 0 0 -14000 -14000 0 0 0 14000zm-15000 0l14000 0 0 0 0 -14000 0 0 -14000 14000zm59500 -14500l-13000 -13000 0 0 0 13000 0 0 13000 0zm-16000 0l0 -15000 0 0 -21292.9 0 0 0 -7207.1 7207.1 0 0 0 7792.9 0 0 14500 0 0 0 14000 0zm-44000 0l14500 0 0 0 0 -7792.9 0 0 -7207.1 -7207.1 0 0 -21292.9 0 0 0 0 15000 0 0 14000 0zm-17000 0l0 -13000 0 0 -13000 13000 0 0 13000 0zm32500 -9207.1l5792.9 -5792.9 0 0 -5792.9 0 0 0 0 5792.9zm-1000 0l0 -5792.9 0 0 -5792.9 0 0 0 5792.9 5792.9zm501000 -5792.9l14500 0 0 0 0 -14000 0 0 -7292.9 0 0 0 -7207.1 7207.1 0 0 0 6792.9zm-15500 0l14500 0 0 0 0 -6792.9 0 0 -7207.1 -7207.1 0 0 -7292.9 0 0 0 0 14000zm-485500 -1000l0 -5792.9 0 0 -5792.9 5792.9 0 0 5792.9 0zm15500 0l0 -43500 0 0 -14500 0 0 0 0 36292.9 0 0 7207.1 7207.1 0 0 7292.9 0zm-22707.1 0l7207.1 -7207.1 0 0 0 -36292.9 0 0 -14500 0 0 0 0 43500 0 0 7292.9 0zm14000 0l-5792.9 -5792.9 0 0 0 5792.9 0 0 5792.9 0zm743707.1 -5310.2l8207.1 -8207.1 0 0 -8207.1 -8207.1 0 0 -8207.1 8207.1 0 0 7707.1 7707.1 0 0 500 500zm-15000 -1207.1l6500 -6500 0 0 -6500 0 0 0 0 6500zm30000 -207.1l0 -6292.9 0 0 -6292.9 0 0 0 6292.9 6292.9zm-265500 -482.7l0 -5792.9 0 0 -5792.9 0 0 0 5792.9 5792.9zm1000 -6792.9l5792.9 0 0 0 -5792.9 -5792.9 0 0 0 5792.9zm29500 0l15000 -15000 0 0 -44500 0 0 0 0 7792.9 0 0 7207.1 7207.1 0 0 7292.9 0 0 0 15000 0zm-30500 0l0 -5792.9 0 0 -5792.9 5792.9 0 0 5792.9 0zm-14500 0l7292.9 0 0 0 7207.1 -7207.1 0 0 0 -7792.9 0 0 -44500 0 0 0 15000 15000 0 0 15000 0zm-234500 0l5792.9 0 0 0 -5792.9 -5792.9 0 0 0 5792.9zm14500 0l15000 0 0 0 15000 -15000 0 0 -44500 0 0 0 0 7792.9 0 0 7207.1 7207.1 0 0 7292.9 0zm-21292.9 0l5792.9 0 0 0 0 -5792.9 0 0 -5792.9 5792.9zm-23707.1 0l22292.9 0 0 0 7207.1 -7207.1 0 0 0 -7792.9 0 0 -44500 0 0 0 15000 15000zm515000 -17.3l6292.9 0 0 0 -15000 -15000 0 0 -21292.9 0 0 0 15000 15000 0 0 6292.9 0 0 0 8707.1 0zm8707.1 0l5792.9 -5792.9 0 0 0 5792.9 0 0 -5792.9 0zm21292.9 0l15000 0 0 0 15000 -15000 0 0 -21292.9 0 0 0 -15000 15000 0 0 6292.9 0zm-14500 0l0 -5792.9 0 0 5792.9 5792.9 0 0 -5792.9 0zm0 -8000l7000 -7000 0 0 -7000 0 0 0 0 7000zm-1000 -207.1l0 -6792.9 0 0 -6792.9 0 0 0 1000 1000 0 0 5792.9 5792.9zm-249000 -7275.6l14000 -14000 0 0 -14000 0 0 0 0 14000zm-250000 0l14000 -14000 0 0 -14000 0 0 0 0 14000zm249000 0l0 -14000 0 0 -14000 0 0 0 14000 14000zm-250000 0l0 -14000 0 0 -14000 0 0 0 14000 14000zm501000 -17.3l14000 -14000 0 0 -14000 0 0 0 0 14000zm-1000 0l0 -14000 0 0 -14000 0 0 0 5792.9 5792.9 0 0 8207.1 8207.1zm-485000 -14982.7l-14000 -14000 0 0 0 14000 0 0 14000 0zm500000 -17.3l-14000 -14000 0 0 0 14000 0 0 8207.1 0 0 0 5792.9 0zm-15000 0l0 -14000 0 0 -14000 14000 0 0 5792.9 0 0 0 8207.1 0zm-764500 -1982.7l12500 0 0 0 -12500 -12500 0 0 0 12500zm17500 0l12500 0 0 0 0 -12500 0 0 -12500 12500z"/>
 </g>
</svg>
