<?xml version="1.0" encoding="UTF-8"?>
<!DOCTYPE svg PUBLIC "-//W3C//DTD SVG 1.1//EN" "http://www.w3.org/Graphics/SVG/1.1/DTD/svg11.dtd">
<!-- Creator: CorelDRAW 2020 (64-Bit) -->
<svg xmlns="http://www.w3.org/2000/svg" xml:space="preserve" width="300mm" height="300mm" version="1.1" style="shape-rendering:geometricPrecision; text-rendering:geometricPrecision; image-rendering:optimizeQuality; fill-rule:evenodd; clip-rule:evenodd"
viewBox="0 0 300000 300000"
 xmlns:xlink="http://www.w3.org/1999/xlink"
 xmlns:xodm="http://www.corel.com/coreldraw/odm/2003">
 <defs>
  <style type="text/css">
   <![CDATA[
    .fil0 {fill:#C1272D}
   ]]>
  </style>
 </defs>
 <g id="Layer_x0020_1">
  <metadata id="CorelCorpID_0Corel-Layer"/>
  <path class="fil0" d="M224970.7 300029.2l0 -72878.6 0 0 -36439.4 36439.3 0 0 36439.4 36439.3zm-150000 0l36439.4 -36439.3 0 0 -36439.4 -36439.3 0 0 0 3000 0 0 0 69878.6zm111439.3 -38560.6l34939.3 -34939.3 0 0 -69878.6 0 0 0 3621.3 3621.3 0 0 31318 31318zm-72878.6 0l34939.3 -34939.3 0 0 -69878.6 0 0 0 32818 32818 0 0 2121.3 2121.3zm-41560.7 -36439.3l878.7 0 0 0 -36439.3 -36439.4 0 0 -36439.3 36439.4 0 0 71999.9 0zm227999.9 0l-36439.3 -36439.4 0 0 -36439.3 36439.4 0 0 878.7 0 0 0 71999.9 0zm-151499.9 -1500l120 0 0 0 0 -31127.4 0 0 1380 -1380 0 0 1380 1380 0 0 0 31127.4 0 0 69998.6 0 0 0 -34628.6 -34628.7 0 0 0 -4242.6 0 0 36750 36749.9 0 0 0 -69878.6 0 0 -36750 0 0 0 0 -3000 0 0 36750 0 0 0 0 -50370 0 0 3000 0 0 0 0 50370 0 0 34939.3 -34939.3 0 0 -22713.5 -22713.5 0 0 2121.3 -2121.4 0 0 22713.5 22713.6 0 0 36439.3 -36439.4 0 0 -45427 0 0 0 15120 -15120 0 0 -27451.6 0 0 0 57758.6 -57758.6 0 0 0 -2121.3 0 0 -2121.3 0 0 0 -59880 59879.9 0 0 -12998.6 0 0 0 0 -59879.9 0 0 -36439.4 36439.3 0 0 23560.7 23560.6 0 0 -4242.7 0 0 0 -21439.3 -21439.3 0 0 -21559.3 21559.3 0 0 -12000 0 0 0 0 -47729.7 0 0 -13149 0 0 0 10269 -10268.9 0 0 34318 34318 0 0 2121.3 -2121.3 0 0 -34318 -34318 0 0 -4242.6 0 0 0 -12390.3 12390.2 0 0 -36098.1 0 0 0 0 12000 0 0 -24390.3 -24390.2 0 0 -2.5 59879.9 0 0 -12996.1 0 0 0 -59880 -59879.9 0 0 -2121.3 0 0 0 0 2121.3 0 0 57758.6 57758.6 0 0 -27451.6 0 0 0 15120 15120 0 0 -45427 0 0 0 36439.3 36439.4 0 0 22713.5 -22713.6 0 0 2121.3 2121.4 0 0 -22713.5 22713.5 0 0 34939.3 34939.3 0 0 0 -50370 0 0 3000 0 0 0 0 50370 0 0 36750 0 0 0 0 3000 0 0 -36750 0 0 0 0 69878.6 0 0 36750 -36749.9 0 0 0 4242.6 0 0 -34628.6 34628.7 0 0 37628.6 0 0 0 32250 0zm-75000 -2121.4l0 -69878.6 0 0 -34939.3 34939.3 0 0 34318 34318 0 0 621.3 621.3zm153000 0l34939.3 -34939.3 0 0 -34939.3 -34939.3 0 0 0 69878.6zm-110250 -878.6l0 -34628.7 0 0 32370 -32370 0 0 0 34628.7 0 0 -120 120 0 0 -32250 32250zm67500 0l-32370 -32370 0 0 0 -34628.7 0 0 32370 32370 0 0 0 6501.3 0 0 0 28127.4zm0 -38871.3l-30128.7 -30128.7 0 0 30128.7 0 0 0 0 2001.3 0 0 0 28127.4zm-67500 0l0 -30128.7 0 0 30128.7 0 0 0 -2001.3 2001.3 0 0 -28127.4 28127.4zm0 -33128.7l0 -30128.7 0 0 30128.7 30128.7 0 0 -30128.7 0zm37371.3 0l30128.7 -30128.7 0 0 0 30128.7 0 0 -30128.7 0zm-5001.3 -2001.3l-32370 -32370 0 0 0 -15998.7 0 0 16500 0 0 0 15870 15870 0 0 0 4371.3 0 0 0 28127.4zm2760 0l0 -32498.7 0 0 15870 -15870 0 0 16500 0 0 0 0 15998.7 0 0 -1242.6 1242.6 0 0 -31127.4 31127.4zm-38130 -31127.4l-17241.3 -17241.3 0 0 4242.6 0 0 0 12998.7 12998.7 0 0 0 3000 0 0 0 1242.6zm73500 0l0 -4242.6 0 0 12998.7 -12998.7 0 0 4242.6 0 0 0 -16490.1 16490.1 0 0 -751.2 751.2zm-36750 -2112.6l-1500 -1500 0 0 0 -13628.7 0 0 -13628.7 0 0 0 -1500 -1500 0 0 1500 -1500 0 0 13628.7 0 0 0 0 -13628.6 0 0 1500 -1500 0 0 1500 1500 0 0 0 13628.6 0 0 13628.7 0 0 0 1500 1500 0 0 -1500 1500 0 0 -13628.7 0 0 0 0 13628.7 0 0 -120 120 0 0 -1380 1380zm-76500 -18128.7l-3700.3 0 0 0 -6404.1 -6404.2 0 0 10104.4 -10104.4 0 0 0 10104.4 0 0 0 6404.2zm3000 0l0 -16508.6 0 0 16508.7 16508.6 0 0 -14387.3 0 0 0 -2121.4 0zm20751.3 0l-18629.9 -18630 0 0 69878.6 0 0 0 0 2880 0 0 -15750 15750 0 0 -32498.7 0 0 0 -3000 0zm129248.7 0l0 -16508.6 0 0 10104.4 10104.4 0 0 -6404.1 6404.2 0 0 -3700.3 0zm-5121.4 0l-14387.3 0 0 0 16508.7 -16508.6 0 0 0 16508.6 0 0 -2121.4 0zm-18629.9 0l-35498.7 0 0 0 -15750 -15750 0 0 0 -2880 0 0 69878.6 0 0 0 -17387.3 17387.4 0 0 -1242.6 1242.6zm-141474.5 -8525.5l-10104.5 -10104.5 0 0 20209 0 0 0 -9377.3 9377.4 0 0 -727.2 727.1zm177451.6 0l-10104.5 -10104.5 0 0 20209 0 0 0 -7983.2 7983.2 0 0 -2121.3 2121.3zm13104.5 -13104.5l-23209 0 0 0 10380 -10380 0 0 23208.9 0 0 0 -7637.3 7637.4 0 0 -2742.6 2742.6zm-203660.6 0l-10379.9 -10380 0 0 23208.9 0 0 0 10380 10380 0 0 -13620 0 0 0 -9589 0zm54220.6 0l-23768.9 0 0 0 10380 -10380 0 0 59498.6 0 0 0 0 10380 0 0 -36001.2 0 0 0 -10108.5 0zm86170.3 0l-37060.6 0 0 0 0 -10380 0 0 59498.6 0 0 0 10380 10380 0 0 -13500 0 0 0 -19318 0zm-115060.6 -2121.3l-8258.6 -8258.7 0 0 8258.6 0 0 0 0 8258.7zm153000 0l0 -8258.7 0 0 8258.6 0 0 0 -6137.3 6137.4 0 0 -2121.3 2121.3zm-150000 0l0 -8258.7 0 0 8258.7 0 0 0 -6137.3 6137.4 0 0 -2121.4 2121.3zm147000 0l-8258.7 -8258.7 0 0 8258.7 0 0 0 0 8258.7zm-121109.7 -10620l0 -42942.3 0 0 21471.2 21471.2 0 0 -20592.5 20592.4 0 0 -878.7 878.7zm28895.8 -638.7l-19771.8 0 0 0 15529.1 -15529.1 0 0 15529.2 15529.1 0 0 -11286.5 0zm-42284.7 -120l-1122.7 0 0 0 11511.6 -11511.6 0 0 0 4242.7 0 0 -7268.9 7268.9 0 0 -3120 0zm60878.6 -1057.9l-18593.9 -18593.9 0 0 18593.9 -18593.9 0 0 0 18593.9 0 0 0 18593.9zm-23897.2 -21775.8l-21775.9 -21776 0 0 43551.8 0 0 0 -21775.9 21776zm24017.2 262833.6l2121.3 0 0 0 34318 -34318 0 0 -2121.3 -2121.3 0 0 -32818 32818 0 0 0 -65636 0 0 -1500 -1500 0 0 -1500 1500 0 0 0 65636 0 0 -32818 -32818 0 0 -2121.3 2121.3 0 0 34318 34318 0 0 621.3 0 0 0 1500 0zm-147878.6 0l69878.6 -69878.6 0 0 0 -2241.3 0 0 -2001.3 0 0 0 -69998.6 69998.6 0 0 0 2121.3 0 0 2121.3 0zm297878.5 0l0 -2121.3 0 0 -69998.6 -69998.6 0 0 -2001.3 0 0 0 0 2241.3 0 0 69878.6 69878.6 0 0 2121.3 0zm-34318 -113560.6l34318 -34318 0 0 0 -4242.6 0 0 -34318 -34318 0 0 -2121.3 2121.3 0 0 32818 32818 0 0 -65636 0 0 0 -1500 1500 0 0 1500 1500 0 0 65636 0 0 0 -32818 32818 0 0 2121.3 2121.3zm-231363.8 0l2121.3 -2121.3 0 0 -32818 -32818 0 0 65636 0 0 0 1500 -1500 0 0 -1500 -1500 0 0 -65636 0 0 0 32818 -32818 0 0 -2121.3 -2121.3 0 0 -34318 34318 0 0 0 4242.6 0 0 34318 34318z"/>
 </g>
</svg>
