<?xml version="1.0" encoding="UTF-8"?>
<!DOCTYPE svg PUBLIC "-//W3C//DTD SVG 1.1//EN" "http://www.w3.org/Graphics/SVG/1.1/DTD/svg11.dtd">
<!-- Creator: CorelDRAW 2020 (64-Bit) -->
<svg xmlns="http://www.w3.org/2000/svg" xml:space="preserve" width="1000mm" height="1000mm" version="1.1" style="shape-rendering:geometricPrecision; text-rendering:geometricPrecision; image-rendering:optimizeQuality; fill-rule:evenodd; clip-rule:evenodd"
viewBox="0 0 1000000 1000000"
 xmlns:xlink="http://www.w3.org/1999/xlink"
 xmlns:xodm="http://www.corel.com/coreldraw/odm/2003">
 <defs>
  <style type="text/css">
   <![CDATA[
    .fil0 {fill:#C1272D}
   ]]>
  </style>
 </defs>
 <g id="A-WALL">
  <metadata id="CorelCorpID_0Corel-Layer"/>
  <path class="fil0" d="M499958.9 1000041.5l15100 0 0 0 0 -694900 0 0 -15100 -15100 0 0 -15100 15100 0 0 0 694900 0 0 15100 0zm-15000 -735000l0 -15000 0 0 -20000 0 0 0 -15000 -15000 0 0 -450000 0 0 0 0 30000 0 0 484900 0 0 0 100 0zm30000 0l485000 0 0 0 0 -30000 0 0 -450000 0 0 0 -15000 15000 0 0 -20000 0 0 0 0 15000zm-15100 -6792.9l8207.1 -8207.1 0 0 -8207.1 -8207.1 0 0 -8207.1 8207.1 0 0 7707.1 7707.1 0 0 500 500zm-500 -1914.2l-5792.9 -5792.9 0 0 5792.9 0 0 0 0 1513.1 0 0 0 4279.8zm1000 0l0 -5792.9 0 0 5792.9 0 0 0 -5792.9 5792.9zm-6792.9 -6792.9l5792.9 -5792.9 0 0 0 5792.9 0 0 -5792.9 0zm12585.8 0l-5792.9 0 0 0 0 -5792.9 0 0 5792.9 5792.9zm8807.1 -14500l100 0 0 0 0 -235000 0 0 -30200 0 0 0 0 235000 0 0 28792.9 0 0 0 1307.1 0zm-15600 -1207.1l-13292.9 -13292.9 0 0 13292.9 0 0 0 0 13210.8 0 0 0 82.1zm1000 0l0 -13292.9 0 0 13292.9 0 0 0 -13292.9 13292.9zm0 -14292.9l0 -13292.9 0 0 13292.9 13292.9 0 0 -97 0 0 0 -13195.9 0zm-14292.9 0l13292.9 -13292.9 0 0 0 13292.9 0 0 -13292.9 0z"/>
 </g>
</svg>
