<?xml version="1.0" encoding="UTF-8"?>
<!DOCTYPE svg PUBLIC "-//W3C//DTD SVG 1.1//EN" "http://www.w3.org/Graphics/SVG/1.1/DTD/svg11.dtd">
<!-- Creator: CorelDRAW 2020 (64-Bit) -->
<svg xmlns="http://www.w3.org/2000/svg" xml:space="preserve" width="1000mm" height="1000mm" version="1.1" style="shape-rendering:geometricPrecision; text-rendering:geometricPrecision; image-rendering:optimizeQuality; fill-rule:evenodd; clip-rule:evenodd"
viewBox="0 0 1000000 1000000"
 xmlns:xlink="http://www.w3.org/1999/xlink"
 xmlns:xodm="http://www.corel.com/coreldraw/odm/2003">
 <defs>
  <style type="text/css">
   <![CDATA[
    .fil0 {fill:#C1272D}
   ]]>
  </style>
 </defs>
 <g id="A-WALL">
  <metadata id="CorelCorpID_0Corel-Layer"/>
  <path class="fil0" d="M859858.9 1000041.5l30200 0 0 0 0 -194900 0 0 -15100 -15100 0 0 -15100 15100 0 0 0 194900zm-219800 0l0 -194900 0 0 -15100 -15100 0 0 -15100 15100 0 0 0 194900 0 0 30200 0zm-280200 0l30200 0 0 0 0 -194900 0 0 -15100 -15100 0 0 -15100 15100 0 0 0 194900zm-219800 0l0 -194900 0 0 -15100 -15100 0 0 -15100 15100 0 0 0 194900 0 0 30200 0zm719800 -235000l100 0 0 0 0 -15000 0 0 -20000 0 0 0 -15000 -15000 0 0 -150000 0 0 0 -15000 15000 0 0 -20000 2.6 0 0 0 14997.4 0 0 172507.7 0 0 0 47392.3 0zm-749900 0l0 -15000 0 0 -20000 0 0 0 -15000 -15000 0 0 -200000 0 0 0 0 30000 0 0 234900 0 0 0 100 0zm30100 0l219900 0 0 0 0 -15000 0 0 -20000 0 0 0 -15000 -15000 0 0 -150000 0 0 0 -15000 15000 0 0 -20000 2.6 0 0 0 14997.4 0 0 100 0zm249900 0l220000 0 0 0 0 -15000 0 0 -20000 0 0 0 -15000 -15000 0 0 -150000 0 0 0 -15000 15000 0 0 -20000 2.6 0 0 0 14997.4zm500000 0l235000 0 0 0 0 -30000 0 0 -200000 0 0 0 -15000 15000 0 0 -20000 2.6 0 0 0 14997.4zm-15000 -6792.9l8207.1 -8207.1 0 0 -8207.1 -8207.1 0 0 -8204.5 8209.7 0 0 8204.5 8204.5zm-250000 0l8207.1 -8207.1 0 0 -8207.1 -8207.1 0 0 -8204.5 8209.7 0 0 8204.5 8204.5zm-250000 0l8207.1 -8207.1 0 0 -8207.1 -8207.1 0 0 -8204.5 8209.7 0 0 8204.5 8204.5zm-250000 0l8207.1 -8207.1 0 0 -8207.1 -8207.1 0 0 -8204.5 8209.7 0 0 8204.5 8204.5zm749500 -23207.1l15600 0 0 0 0 -179900 0 0 -15100 -15100 0 0 -15100 15100 0 0 0 179900 0 0 1307.1 0 0 0 13292.9 0zm-235707.1 0l1307.1 0 0 0 0 -179900 0 0 -15100 -15100 0 0 -15100 15100 0 0 0 179900 0 0 15600 0 0 0 13292.9 0zm-248792.9 0l100 0 0 0 0 -179900 0 0 -15100 -15100 0 0 -15100 15100 0 0 0 179900 0 0 28892.9 0 0 0 1207.1 0zm-280000 0l30100 0 0 0 0 -179900 0 0 -15100 -15100 0 0 -15100 15100 0 0 0 179900 0 0 100 0zm233746.2 -220000l16253.8 0 0 0 0 -15000 0 0 -20000 0 0 0 -15000 -15000 0 0 -150000 0 0 0 -15000 15000 0 0 -20000 0 0 0 0 15000 0 0 47492.3 0 0 0 156253.9 0zm516153.8 0l100 0 0 0 0 -15000 0 0 -20000 0 0 0 -15000 -15000 0 0 -150000 0 0 0 -15000 15000 0 0 -20000 0 0 0 0 15000 0 0 172507.7 0 0 0 47392.3 0zm-750000 0l100 0 0 0 0 -15000 0 0 -20000 0 0 0 -15000 -15000 0 0 -200000 0 0 0 0 30000 0 0 215000 0 0 0 19900 0zm280100 0l220000 0 0 0 0 -15000 0 0 -20000 0 0 0 -15000 -15000 0 0 -150000 0 0 0 -15000 15000 0 0 -20000 0 0 0 0 15000zm578761.5 0l156238.5 0 0 0 0 -30000 0 0 -200000 0 0 0 -15000 15000 0 0 -20000 0 0 0 0 15000 0 0 20000 0 0 0 58761.5 0zm-93761.5 -6792.9l8207.1 -8207.1 0 0 -8207.1 -8207.1 0 0 -8207.1 8207.1 0 0 7707.1 7707.1 0 0 500 500zm-250000 0l8207.1 -8207.1 0 0 -8207.1 -8207.1 0 0 -8207.1 8207.1 0 0 8207.1 8207.1zm-250000 0l8207.1 -8207.1 0 0 -8207.1 -8207.1 0 0 -8207.1 8207.1 0 0 8207.1 8207.1zm-250000 0l8207.1 -8207.1 0 0 -8207.1 -8207.1 0 0 -8207.1 8207.1 0 0 8207.1 8207.1zm734900 -23207.1l30200 0 0 0 0 -179900 0 0 -15100 -15100 0 0 -15100 15100 0 0 0 164400 0 0 0 15500zm-234400 0l14600 0 0 0 0 -179900 0 0 -15100 -15100 0 0 -15100 15100 0 0 0 179900 0 0 14600 0 0 0 1000 0zm-235400 0l0 -179900 0 0 -15100 -15100 0 0 -15100 15100 0 0 0 179900 0 0 28892.9 0 0 0 1307.1 0zm-250000 0l0 -179900 0 0 -15100 -15100 0 0 -15100 15100 0 0 0 179900 0 0 28892.9 0 0 0 1307.1 0zm750000 -220000l234900 0 0 0 0 -30000 0 0 -200000 0 0 0 -15000 15000 0 0 -20000 0 0 0 0 15000 0 0 100 0zm-750000 0l219900 0 0 0 0 -15000 0 0 -20002.6 -2.6 0 0 -14997.4 -14997.4 0 0 -150000 0 0 0 -15000 15000 0 0 -20000 0 0 0 0 15000 0 0 100 0zm516153.8 0l203746.2 0 0 0 0 -15000 0 0 -20002.6 -2.6 0 0 -14997.4 -14997.4 0 0 -150000 0 0 0 -15000 15000 0 0 -20000 0 0 0 0 15000 0 0 100 0 0 0 16153.8 0zm-46253.8 0l0 -15000 0 0 -20002.6 -2.6 0 0 -14997.4 -14997.4 0 0 -150000 0 0 0 -15000 15000 0 0 -20000 0 0 0 0 15000 0 0 219900 0 0 0 100 0zm-500100 0l100 0 0 0 0 -15000 0 0 -20002.6 -2.6 0 0 -14997.4 -14997.4 0 0 -200000 0 0 0 0 30000 0 0 215000 0 0 0 19900 0zm765100 -6792.9l8204.5 -8209.7 0 0 -8204.5 -8204.5 0 0 -8207.1 8207.1 0 0 7707.1 7707.1 0 0 500 500zm-250000 0l8204.5 -8209.7 0 0 -8204.5 -8204.5 0 0 -8207.1 8207.1 0 0 8207.1 8207.1zm-250000 0l8204.5 -8209.7 0 0 -8204.5 -8204.5 0 0 -8207.1 8207.1 0 0 8207.1 8207.1zm-250000 0l8204.5 -8209.7 0 0 -8204.5 -8204.5 0 0 -8207.1 8207.1 0 0 8207.1 8207.1zm763792.9 -23207.1l1307.1 0 0 0 0 -235000 0 0 -30200 0 0 0 0 235000 0 0 15600 0 0 0 13292.9 0zm-277585.8 0l28892.9 0 0 0 0 -235000 0 0 -30200 0 0 0 0 235000 0 0 1307.1 0zm-236707.1 0l15600 0 0 0 0 -235000 0 0 -30200 0 0 0 0 235000 0 0 1307.1 0 0 0 13292.9 0zm-263292.9 0l28892.9 0 0 0 0 -235000 0 0 -30200 0 0 0 0 235000 0 0 1307.1 0zm763292.9 -1207.1l-13292.9 -13292.9 0 0 13292.9 0 0 0 0 13210.2 0 0 0 82.7zm-250000 0l-13292.9 -13292.9 0 0 13292.9 0 0 0 0 13210.2 0 0 0 82.7zm251000 0l0 -13292.9 0 0 13292.9 0 0 0 -13292.9 13292.9zm-501000 0l-13292.9 -13292.9 0 0 13292.9 0 0 0 0 13210.2 0 0 0 82.7zm-250000 0l-13292.9 -13292.9 0 0 13292.9 0 0 0 0 13210.2 0 0 0 82.7zm501000 0l0 -13292.9 0 0 13292.9 0 0 0 -13292.9 13292.9zm-250000 0l0 -13292.9 0 0 13292.9 0 0 0 -13292.9 13292.9zm-250000 0l0 -13292.9 0 0 13292.9 0 0 0 -13292.9 13292.9zm750075.2 -14292.9l-75.2 0 0 0 0 -13292.9 0 0 13292.9 13292.9 0 0 -90.2 0 0 0 -13127.5 0zm-1075.2 0l-13292.9 0 0 0 13292.9 -13292.9 0 0 0 13292.9zm-235707.1 0l-13292.9 0 0 0 0 -13292.9 0 0 13292.9 13292.9zm-27585.8 0l13292.9 -13292.9 0 0 0 13292.9 0 0 -13292.9 0zm-235707.1 0l0 -13292.9 0 0 13292.9 13292.9 0 0 -13217.7 0 0 0 -75.2 0zm-14292.9 0l13292.9 -13292.9 0 0 0 13292.9 0 0 -13292.9 0zm-250000 0l13292.9 -13292.9 0 0 0 13292.9 0 0 -13292.9 0zm14292.9 0l0 -13292.9 0 0 13292.9 13292.9 0 0 -13217.7 0 0 0 -75.2 0zm749000 36792.9l-5792.9 -5792.9 0 0 5792.9 0 0 0 0 1513.1 0 0 0 4279.8zm-499000 0l0 -5792.9 0 0 5792.9 0 0 0 -2606.6 2606.6 0 0 -3186.3 3186.3zm250000 0l0 -5792.9 0 0 5792.9 0 0 0 -2606.6 2606.6 0 0 -3186.3 3186.3zm-500000 0l0 -5792.9 0 0 5792.9 0 0 0 -2606.6 2606.6 0 0 -3186.3 3186.3zm499000 0l-5792.9 -5792.9 0 0 5792.9 0 0 0 0 1513.1 0 0 0 4279.8zm-250000 0l-5792.9 -5792.9 0 0 5792.9 0 0 0 0 1513.1 0 0 0 4279.8zm501000 0l0 -5792.9 0 0 5792.9 0 0 0 -5792.9 5792.9zm-751000 0l-5792.9 -5792.9 0 0 5792.9 0 0 0 0 1513.1 0 0 0 4279.8zm750000 -6792.9l-5792.9 0 0 0 5792.9 -5792.9 0 0 0 4279.8 0 0 0 1513.1zm6792.9 0l-5792.9 0 0 0 0 -5792.9 0 0 5792.9 5792.9zm-250000 0l-5792.9 0 0 0 0 -5792.9 0 0 5792.9 5792.9zm-6792.9 0l-5792.9 0 0 0 5792.9 -5792.9 0 0 0 4279.8 0 0 0 1513.1zm-250000 0l-5792.9 0 0 0 5792.9 -5792.9 0 0 0 4279.8 0 0 0 1513.1zm1000 0l0 -5792.9 0 0 5792.9 5792.9 0 0 -5792.9 0zm-256792.9 0l5792.9 -5792.9 0 0 0 5792.9 0 0 -5792.9 0zm6792.9 0l0 -5792.9 0 0 5792.9 5792.9 0 0 -5792.9 0zm749000 234292.9l-13292.9 -13292.9 0 0 13292.9 0 0 0 0 13210.2 0 0 0 82.7zm-250000 0l-13292.9 -13292.9 0 0 13292.9 0 0 0 0 13210.2 0 0 0 82.7zm-250000 0l-13292.9 -13292.9 0 0 13292.9 0 0 0 0 13210.2 0 0 0 82.7zm501000 0l0 -13292.9 0 0 13292.9 0 0 0 -13292.9 13292.9zm-751000 0l-13292.9 -13292.9 0 0 13292.9 0 0 0 0 13210.2 0 0 0 82.7zm501000 0l0 -13292.9 0 0 13292.9 0 0 0 -13292.9 13292.9zm-250000 0l0 -13292.9 0 0 13292.9 0 0 0 -13292.9 13292.9zm-250000 0l0 -13292.9 0 0 13292.9 0 0 0 -13292.9 13292.9zm749000 -14292.9l-13292.9 0 0 0 13292.9 -13292.9 0 0 0 13292.9zm1075.2 0l-75.2 0 0 0 0 -13292.9 0 0 13292.9 13292.9 0 0 -90.2 0 0 0 -13127.5 0zm-250075.2 0l0 -13292.9 0 0 13292.9 13292.9 0 0 -13217.7 0 0 0 -75.2 0zm-1000 0l-13292.9 0 0 0 13292.9 -13292.9 0 0 0 13292.9zm-249000 0l0 -13292.9 0 0 13292.9 13292.9 0 0 -13217.7 0 0 0 -75.2 0zm-1000 0l-13292.9 0 0 0 13292.9 -13292.9 0 0 0 13292.9zm-263292.9 0l13292.9 -13292.9 0 0 0 13292.9 0 0 -13292.9 0zm27585.8 0l-13292.9 0 0 0 0 -13292.9 0 0 13292.9 13292.9zm735707.1 36792.9l-5792.9 -5792.9 0 0 5792.9 0 0 0 0 1513.1 0 0 0 4279.8zm-249000 0l0 -5792.9 0 0 5792.9 0 0 0 -2606.6 2606.6 0 0 -3186.3 3186.3zm-250000 0l0 -5792.9 0 0 5792.9 0 0 0 -2606.6 2606.6 0 0 -3186.3 3186.3zm-250000 0l0 -5792.9 0 0 5792.9 0 0 0 -2606.6 2606.6 0 0 -3186.3 3186.3zm499000 0l-5792.9 -5792.9 0 0 5792.9 0 0 0 0 1513.1 0 0 0 4279.8zm-250000 0l-5792.9 -5792.9 0 0 5792.9 0 0 0 0 1513.1 0 0 0 4279.8zm501000 0l0 -5792.9 0 0 5792.9 0 0 0 -5792.9 5792.9zm-751000 0l-5792.9 -5792.9 0 0 5792.9 0 0 0 0 1513.1 0 0 0 4279.8zm756792.9 -6792.9l-5792.9 0 0 0 0 -5792.9 0 0 5792.9 5792.9zm-6792.9 0l-5792.9 0 0 0 5792.9 -5792.9 0 0 0 4279.8 0 0 0 1513.1zm-243207.1 0l-5792.9 0 0 0 0 -5792.9 0 0 5792.9 5792.9zm-6792.9 0l-5792.9 0 0 0 5792.9 -5792.9 0 0 0 4279.8 0 0 0 1513.1zm-243207.1 0l-5792.9 0 0 0 0 -5792.9 0 0 5792.9 5792.9zm-6792.9 0l-5792.9 0 0 0 5792.9 -5792.9 0 0 0 4279.8 0 0 0 1513.1zm-249000 0l0 -5792.9 0 0 5792.9 5792.9 0 0 -5792.9 0zm-1000 0l-5792.9 0 0 0 5792.9 -5792.9 0 0 0 4279.8 0 0 0 1513.1zm750000 234292.9l-13292.9 -13292.9 0 0 13292.9 0 0 0 0 13210.2 0 0 0 82.7zm-250000 0l-13292.9 -13292.9 0 0 13292.9 0 0 0 0 13210.2 0 0 0 82.7zm-250000 0l-13292.9 -13292.9 0 0 13292.9 0 0 0 0 13210.2 0 0 0 82.7zm501000 0l0 -13292.9 0 0 13292.9 0 0 0 -13292.9 13292.9zm-250000 0l0 -13292.9 0 0 13292.9 0 0 0 -13292.9 13292.9zm-501000 0l-13292.9 -13292.9 0 0 13292.9 0 0 0 0 13210.2 0 0 0 82.7zm251000 0l0 -13292.9 0 0 13292.9 0 0 0 -13292.9 13292.9zm-250000 0l0 -13292.9 0 0 13292.9 0 0 0 -13292.9 13292.9zm763202.7 -14292.9l-13202.7 0 0 0 0 -13292.9 0 0 13292.9 13292.9 0 0 -90.2 0zm-14202.7 0l-13292.9 0 0 0 13292.9 -13292.9 0 0 0 13292.9zm-249000 0l0 -13292.9 0 0 13292.9 13292.9 0 0 -90.2 0 0 0 -13202.7 0zm-1075.2 0l-13217.7 0 0 0 13292.9 -13292.9 0 0 0 13292.9 0 0 -75.2 0zm-235631.9 0l-13292.9 0 0 0 0 -13292.9 0 0 13292.9 13292.9zm-27585.8 0l13292.9 -13292.9 0 0 0 13292.9 0 0 -75.2 0 0 0 -13217.7 0zm-250000 0l13292.9 -13292.9 0 0 0 13292.9 0 0 -75.2 0 0 0 -13217.7 0zm27495.6 0l-13202.7 0 0 0 0 -13292.9 0 0 13292.9 13292.9 0 0 -90.2 0zm736797.3 36792.9l0 -5792.9 0 0 5792.9 0 0 0 -5792.9 5792.9zm-250000 0l0 -5792.9 0 0 5792.9 0 0 0 -5792.9 5792.9zm-250000 0l0 -5792.9 0 0 5792.9 0 0 0 -5792.9 5792.9zm-250000 0l0 -5792.9 0 0 5792.9 0 0 0 -5792.9 5792.9zm749000 0l-5792.9 -5792.9 0 0 5792.9 0 0 0 0 1513.1 0 0 0 4279.8zm-250000 0l-5792.9 -5792.9 0 0 5792.9 0 0 0 0 1513.1 0 0 0 4279.8zm-250000 0l-5792.9 -5792.9 0 0 5792.9 0 0 0 0 1513.1 0 0 0 4279.8zm-250000 0l-5792.9 -5792.9 0 0 5792.9 0 0 0 0 1513.1 0 0 0 4279.8zm744207.1 -6792.9l5792.9 -5792.9 0 0 0 5792.9 0 0 -5792.9 0zm-250000 0l5792.9 -5792.9 0 0 0 5792.9 0 0 -5792.9 0zm-500000 0l5792.9 -5792.9 0 0 0 5792.9 0 0 -5792.9 0zm762585.8 0l-5792.9 0 0 0 0 -5792.9 0 0 5792.9 5792.9zm-500000 0l-5792.9 0 0 0 0 -5792.9 0 0 5792.9 5792.9zm-250000 0l-5792.9 0 0 0 0 -5792.9 0 0 5792.9 5792.9zm494207.1 0l0 -5792.9 0 0 5792.9 5792.9 0 0 -5792.9 0zm-251000 0l-5792.9 0 0 0 5792.9 -5792.9 0 0 0 4279.8 0 0 0 1513.1z"/>
 </g>
</svg>
